<?xml version="1.0" encoding="UTF-8" standalone="no"?>
<svg
   width="257.04001pt"
   height="235.92pt"
   viewBox="0 0 257.04001 235.92"
   version="1.1"
   id="svg18"
   xmlns="http://www.w3.org/2000/svg"
   xmlns:svg="http://www.w3.org/2000/svg">
  <defs
     id="defs8">
    <clipPath
       id="clip-0">
      <path
         clip-rule="nonzero"
         d="M 30.71875 0.75 L 205.144531 0.75 L 205.144531 165.589844 L 30.71875 165.589844 Z M 30.71875 0.75 "
         id="path2" />
    </clipPath>
    <clipPath
       id="clip-1">
      <path
         clip-rule="nonzero"
         d="M 1 171 L 257 171 L 257 230 L 1 230 Z M 1 171 "
         id="path5" />
    </clipPath>
  </defs>
  <g
     clip-path="url(#clip-0)"
     id="g12">
    <path
       fill-rule="nonzero"
       fill="#4ca64f"
       fill-opacity="1"
       d="m 116.47266,163.0625 c -1.08985,-2.04297 -4.21875,-9.65234 -6.95313,-16.91016 -4.40625,-11.71093 -4.63281,-13.4414 -2.01562,-15.35547 3.84765,-2.81249 4.35937,-33.320307 0.55859,-33.257807 -1.31641,0.01953 -7.98437,3.304687 -14.824219,7.296877 -9.753906,5.69922 -12.3125,8.125 -11.867187,11.2539 0.507812,3.56641 -0.914063,4.22657 -13.390625,6.23047 -7.675781,1.23438 -15.390625,2.64453 -17.144531,3.13672 -6.691407,1.8711 -5,-3.12109 5.347656,-15.78515 11.742187,-14.375005 13.089844,-15.39063 16.609375,-12.472661 1.714844,1.425781 5.789062,0.0039 14.5625,-5.078125 C 94.058594,88.242188 99.628906,84.25 99.738281,83.25 99.84375,82.25 94.460938,78.011719 87.773438,73.828125 77.609375,67.472656 75.03125,66.589844 72.054688,68.449219 68.925781,70.40625 67.21875,69.074219 57.910156,57.410156 45.90625,42.363281 44.929688,39.328125 52.589844,40.871094 c 2.890625,0.585937 11.105469,2.039062 18.253906,3.234375 11.433594,1.910156 12.929688,2.640625 12.4375,6.082031 -0.429687,2.96875 2.199219,5.648438 10.914063,11.128906 6.312497,3.972657 12.550777,7.28125 13.867187,7.355469 1.73438,0.09766 2.39063,-4.320312 2.39063,-16.125 0,-13.175781 -0.54297,-16.257812 -2.86719,-16.257812 -1.57813,0 -2.82813,-0.644532 -2.77344,-1.433594 0.28516,-4.265625 12.71484,-33.953125 14.21484,-33.953125 1.96875,0 12.16016,24.859375 12.34766,30.125 0.0664,1.84375 -1.17188,3.347656 -2.75,3.347656 -2.33594,0 -2.86719,3.1875 -2.86719,17.214844 0,9.46875 0.7461,17.21875 1.66016,17.21875 0.91015,0 7.8164,-3.566406 15.34375,-7.925781 10.84375,-6.277344 13.45703,-8.648438 12.57812,-11.414063 -1.20703,-3.800781 -0.8164,-3.949219 19.07032,-7.390625 20.40625,-3.53125 20.77343,-2.601562 5.75,14.507813 -9.07032,10.332031 -11.13282,11.800781 -14.03516,9.988281 -2.76563,-1.726563 -5.98047,-0.617188 -17.21094,5.941406 -7.59765,4.4375 -13.47656,9.074219 -13.0664,10.308594 0.41015,1.234375 6.60156,5.605469 13.7539,9.71875 10.40235,5.976562 13.67578,7.058594 16.33594,5.394531 3.48828,-2.179687 7.24219,0.949219 19.73047,16.44531 7.69922,9.55469 6.86328,10.51953 -7.78516,9.01953 -18.29297,-1.8789 -21.51953,-2.88671 -21.51953,-6.73437 0,-2.16406 -4.875,-6.19531 -13.64453,-11.26953 C 135.21484,101.05469 128.32812,97.5 127.41797,97.5 c -0.91406,0 -1.66016,7.4375 -1.66016,16.52734 0,13.14454 0.64453,16.9961 3.15235,18.83203 2.89062,2.10938 2.69921,3.50391 -2.25782,16.46875 -6.51562,17.05469 -7.60937,18.53125 -10.17968,13.73438 z m 7.23047,-76.777344 c 2.48828,-4.648437 -1.60157,-10.507812 -6.66016,-9.535156 -3.85938,0.742188 -5.73438,5.667969 -3.94141,10.339844 1.50782,3.929687 8.34375,3.414062 10.60157,-0.804688 z M 73.628906,158.55859 c -1.839843,-1.07422 -3.347656,-2.7539 -3.347656,-3.73828 0,-4.55078 24.03125,-43.92968 26.808594,-43.92968 3.531246,0 7.624996,3.6289 7.624996,6.75781 0,3.78906 -23.382809,42.97656 -25.605465,42.91797 -1.171875,-0.0312 -3.636719,-0.9375 -5.480469,-2.00782 z m 69.402344,-19.17578 c -12.69531,-22.07422 -13.46484,-26.7539 -4.60156,-28.08984 2.88281,-0.4375 6.25,3.95703 15.58593,20.32812 6.55079,11.48828 11.91407,21.82032 11.91407,22.96485 0,2.07422 -5.9375,6.03906 -9.04297,6.03906 -0.90235,0 -7.13672,-9.55859 -13.85547,-21.24219 z M 31.171875,86.34375 c -0.632812,-1.984375 -0.597656,-5.042969 0.07813,-6.800781 1.074219,-2.800781 4.410156,-3.125 27.300781,-2.660156 l 26.078125,0.53125 v 11.476562 l -26.15625,0.53125 C 34.261719,89.914063 32.230469,89.6875 31.171875,86.34375 Z m 122.121095,0.804688 c -0.59375,-1.550782 -0.77735,-4.371094 -0.41406,-6.273438 0.60546,-3.132812 3.10156,-3.460937 26.46484,-3.460937 h 25.80078 v 11.476562 l -25.38672,0.535156 c -20.92187,0.441407 -25.57422,0.03516 -26.46484,-2.277343 z M 91.746094,50.15625 C 89.730469,47.265625 84.078125,37.496094 79.1875,28.453125 70.640625,12.652344 70.429688,11.882813 73.785156,8.84375 c 1.921875,-1.738281 4.492188,-3.160156 5.710938,-3.160156 1.933594,0 12.304687,16.074219 24.218746,37.550781 3.72657,6.710938 3.72657,6.855469 0.11329,9.5 -5.332036,3.898438 -7.960942,3.335938 -12.082036,-2.578125 z m 42.046876,2.964844 c -1.26563,-1.261719 -2.29688,-3.089844 -2.29688,-4.058594 0,-2.992187 23.63282,-43.378906 25.38282,-43.378906 3.23437,0 9.05078,4 9.05078,6.226562 0,1.246094 -5.3125,11.542969 -11.80469,22.886719 -11.66016,20.371094 -15.14844,23.511719 -20.33203,18.324219 z m 0,0"
       id="path10" />
  </g>
  <g
     clip-path="url(#clip-1)"
     id="g16">
    <path
       fill-rule="nonzero"
       fill="#4ca64f"
       fill-opacity="1"
       d="m 9.050781,194.81641 h 4.5625 c 4.210938,0 6.316407,-1.08985 6.316407,-3.27344 v -8.33985 c 0,-2.17968 -2.113282,-3.26953 -6.339844,-3.26953 -4.226563,0 -6.339844,1.08985 -6.339844,3.26953 v 30.89454 c 0,1.35156 -0.972656,2.02343 -2.917969,2.02343 -0.84375,0 -1.507812,-0.13672 -1.980468,-0.41015 -0.625,-0.35938 -0.9375,-0.89453 -0.9375,-1.61328 v -30.36719 c 0,-3.20313 1.160156,-5.54297 3.472656,-7.01172 2.199219,-1.39844 5.089844,-2.09766 8.675781,-2.09766 3.585938,0 6.484375,0.69922 8.699219,2.09375 2.335937,1.47266 3.503906,3.8086 3.503906,7.01563 v 7.28906 c 0,3.67188 -1.726562,5.96484 -5.175781,6.875 L 20.382813,197.10156 20.933594,196.5 c 0.921875,0.83984 1.628906,2.15625 2.125,3.95312 2.503906,8.98438 3.753906,13.6211 3.753906,13.90625 0,1.17579 -0.886719,1.76172 -2.65625,1.76172 -1.628906,0 -2.625,-0.59375 -2.984375,-1.78515 l -0.0039,-0.0117 -3.308594,-11.96875 c -0.261719,-1.01172 -0.574219,-1.62891 -0.9375,-1.84766 -0.433594,-0.2539 -1.515625,-0.38281 -3.253906,-0.38281 H 9.050781 c -0.664062,0 -1.164062,-0.28906 -1.496093,-0.87109 -0.246094,-0.4336 -0.371094,-1.02735 -0.371094,-1.78516 0,-1.76953 0.621094,-2.65234 1.867187,-2.65234 z m 0,1.63671 c -0.152343,0 -0.226562,0.33985 -0.226562,1.01563 0,0.46875 0.050781,0.79297 0.152344,0.97266 0.019531,0.0312 0.042968,0.0469 0.074218,0.0469 h 4.617188 c 2.039062,0 3.402344,0.20313 4.089844,0.61328 0.753906,0.44531 1.3125,1.38672 1.683593,2.82031 l 3.304688,11.95704 -0.792969,0.21875 0.785156,-0.23829 c 0.128907,0.41407 0.601563,0.625 1.417969,0.625 0.480469,0 0.816406,-0.0508 1.003906,-0.14453 l 0.01172,0.0195 c 0,-0.13671 -1.230469,-4.625 -3.691406,-13.47265 -0.414063,-1.48828 -0.964844,-2.55078 -1.652344,-3.17969 l -1.109375,-1.01172 1.453125,-0.38281 c 2.636719,-0.69922 3.953125,-2.46094 3.953125,-5.29297 v -7.28906 c 0,-2.60156 -0.914062,-4.47656 -2.738281,-5.62891 -1.945313,-1.22656 -4.554688,-1.83984 -7.824219,-1.83984 -3.265625,0 -5.867187,0.61328 -7.792969,1.83984 -1.8125,1.14844 -2.714843,3.02344 -2.714843,5.62891 v 30.36719 c 0,0.25781 0.425781,0.38671 1.277343,0.38671 0.851563,0 1.277344,-0.1289 1.277344,-0.38671 v -30.89454 c 0,-1.67968 0.734375,-2.9414 2.203125,-3.77734 1.320313,-0.75391 3.246094,-1.13281 5.777344,-1.13281 5.316406,0 7.976562,1.63672 7.976562,4.91015 v 8.33985 c 0,1.67969 -0.730468,2.9414 -2.195312,3.78125 -1.3125,0.7539 -3.234375,1.1289 -5.757813,1.1289 z m 0,-0.82031 h 4.5625 c 4.757813,0 7.136719,-1.36328 7.136719,-4.08984 v -8.33985 c 0,-2.72656 -2.386719,-4.08984 -7.160156,-4.08984 -4.773438,0 -7.160156,1.36328 -7.160156,4.08984 v 30.89454 c 0,0.80468 -0.699219,1.20703 -2.097657,1.20703 -1.398437,0 -2.097656,-0.40235 -2.097656,-1.20703 v -30.36719 c 0,-2.90235 1.03125,-5.01172 3.09375,-6.32031 2.0625,-1.3125 4.808594,-1.96875 8.234375,-1.96875 3.425781,0 6.179688,0.65625 8.261719,1.96875 2.078125,1.30859 3.121094,3.41796 3.121094,6.32031 v 7.28906 c 0,3.25 -1.523438,5.28125 -4.5625,6.08203 0.800781,0.73438 1.433593,1.92578 1.886718,3.56641 2.480469,8.91797 3.722657,13.48047 3.722657,13.6914 0,0.62891 -0.609375,0.94532 -1.835938,0.94532 -1.222656,0 -1.957031,-0.40235 -2.203125,-1.20703 l -3.304687,-11.96094 c -0.3125,-1.22266 -0.75,-2 -1.308594,-2.33203 -0.558594,-0.33203 -1.785156,-0.5 -3.671875,-0.5 H 9.050781 c -0.699218,0 -1.046875,-0.60938 -1.046875,-1.83594 0,-1.22266 0.347657,-1.83594 1.046875,-1.83594 z m 50.226563,-4.66797 v 1.57422 c 0,3.21485 -0.699219,5.46094 -2.101563,6.74219 -1.359375,1.24219 -3.753906,2.03125 -7.1875,2.36328 l -10.226562,0.99609 -0.07813,-0.8164 H 40.5 v 6.24219 c 0,2.17968 2,3.26953 6,3.26953 4.628906,0 6.945313,-0.91407 6.945313,-2.7461 v -1.99218 c 0,-1.35157 0.972656,-2.02735 2.914062,-2.02735 1.945313,0 2.917969,0.67578 2.917969,2.02735 v 1.46875 c 0,2.8789 -1.082031,5.04296 -3.246094,6.5 -2.0625,1.38671 -5.097656,2.08203 -9.109375,2.08203 -3.550781,0 -6.449219,-0.70703 -8.699219,-2.1211 -2.371093,-1.48828 -3.554687,-3.8164 -3.554687,-6.98828 v -16.46875 c 0,-3.21484 1.253906,-5.55469 3.761719,-7.02734 2.363281,-1.38281 5.421875,-2.07813 9.171875,-2.07813 3.773437,0 6.636718,0.67969 8.597656,2.03516 2.050781,1.42187 3.078125,3.74219 3.078125,6.96484 z m -1.636719,0 c 0,-2.64843 -0.792969,-4.52343 -2.375,-5.61718 -1.679687,-1.16407 -4.234375,-1.74219 -7.664062,-1.74219 -3.453125,0 -6.234375,0.61719 -8.34375,1.85156 -1.96875,1.15625 -2.953125,3.02734 -2.953125,5.61328 v 16.46875 c 0,2.56641 0.929687,4.4336 2.789062,5.60156 1.984375,1.2461 4.59375,1.86719 7.828125,1.86719 3.679688,0 6.410156,-0.60156 8.195313,-1.80078 1.679687,-1.13281 2.523437,-2.84375 2.523437,-5.14062 v -1.46875 c 0,-0.25782 -0.425781,-0.38672 -1.28125,-0.38672 -0.851562,0 -1.277344,0.1289 -1.277344,0.38672 v 1.99218 c 0,1.53907 -0.804687,2.67969 -2.417968,3.41797 -1.402344,0.64453 -3.457032,0.96875 -6.164063,0.96875 -5.089844,0 -7.636719,-1.63672 -7.636719,-4.91015 v -6.98438 l 10.96875,-1.07031 c 3.070313,-0.29688 5.148438,-0.94531 6.238282,-1.94141 1.046875,-0.95312 1.570312,-2.79687 1.570312,-5.53125 z M 40.5,190.54687 v 7.60547 h -0.816406 l -0.08203,-0.8164 9.859375,-0.9961 c 1.785156,-0.1875 2.894531,-0.51953 3.332031,-0.99609 0.433594,-0.47266 0.652344,-1.40625 0.652344,-2.80469 v -1.99219 c 0,-1.04296 -0.46875,-1.82812 -1.40625,-2.35156 -1.089844,-0.61328 -2.777344,-0.91797 -5.066407,-0.91797 -2.289062,0 -3.976562,0.30469 -5.066406,0.91797 -0.9375,0.52344 -1.40625,1.3086 -1.406251,2.35156 z m -1.636719,0 c 0,-1.68359 0.746094,-2.94531 2.242188,-3.78125 1.339844,-0.7539 3.292969,-1.1289 5.867187,-1.1289 5.40625,0 8.109375,1.63672 8.109375,4.91015 v 1.99219 c 0,1.82031 -0.359375,3.125 -1.082031,3.91016 -0.714844,0.78515 -2.171875,1.28906 -4.375,1.52344 l -10.761719,1.08593 z m 19.597657,0.41797 v 1.57422 c 0,2.97266 -0.613282,5.01953 -1.835938,6.13672 -1.226562,1.12109 -3.464844,1.83594 -6.714844,2.15234 l -10.226562,0.9961 v 6.24219 c 0,2.72656 2.273437,4.08984 6.816406,4.08984 5.175781,0 7.761719,-1.1875 7.761719,-3.56641 v -1.99218 c 0,-0.80469 0.699219,-1.20704 2.097656,-1.20704 1.398438,0 2.101563,0.40235 2.101563,1.20704 v 1.46875 c 0,5.17187 -3.847657,7.76171 -11.539063,7.76171 -3.394531,0 -6.148437,-0.66406 -8.261719,-1.99218 -2.117187,-1.33203 -3.171875,-3.42969 -3.171875,-6.29688 v -16.46875 c 0,-2.90234 1.117188,-5.00781 3.355469,-6.32031 2.238281,-1.30859 5.15625,-1.96484 8.757813,-1.96484 3.601562,0 6.3125,0.6289 8.128906,1.88671 1.820312,1.25782 2.730469,3.35938 2.730469,6.29297 z m -18.777344,-0.41797 v 7.60547 l 9.859375,-0.99609 c 1.992187,-0.21094 3.277344,-0.62891 3.855469,-1.25781 0.578125,-0.63282 0.863281,-1.75 0.863281,-3.35938 v -1.99219 c 0,-2.72656 -2.429688,-4.08984 -7.289063,-4.08984 -4.859375,0 -7.289062,1.36328 -7.289062,4.08984 z m 36.609375,20.00391 h 4.5625 c 2.230469,0 3.878906,-0.30469 4.941406,-0.91406 0.914063,-0.52344 1.371094,-1.3125 1.371094,-2.35938 v -16.73047 c 0,-2.17968 -2.113281,-3.26953 -6.339844,-3.26953 -4.226562,0 -6.339844,1.08985 -6.339844,3.26953 v 36.66016 c 0,1.35156 -0.972656,2.02734 -2.917968,2.02734 -0.84375,0 -1.503907,-0.13671 -1.980469,-0.41015 -0.625,-0.35938 -0.9375,-0.89844 -0.9375,-1.61719 v -36.13672 c 0,-3.19922 1.160156,-5.53906 3.476562,-7.01172 2.195313,-1.39453 5.085938,-2.09375 8.671875,-2.09375 3.585938,0 6.484375,0.69922 8.699219,2.09375 2.335938,1.47266 3.503906,3.8086 3.503906,7.01172 v 15.6836 c 0,3.20312 -1.160156,5.53906 -3.476562,7.01171 -2.195313,1.39454 -5.085938,2.09375 -8.671875,2.09375 h -4.5625 c -0.667969,0 -1.167969,-0.28906 -1.5,-0.87109 -0.246094,-0.43359 -0.371094,-1.02734 -0.371094,-1.78125 0,-1.77344 0.625,-2.65625 1.871094,-2.65625 z m 0,1.63672 c -0.152344,0 -0.230469,0.33984 -0.230469,1.01953 0,0.46484 0.05078,0.78906 0.152344,0.96875 0.01953,0.0312 0.04297,0.0469 0.07813,0.0469 h 4.5625 c 3.265625,0 5.867187,-0.61329 7.792969,-1.83985 1.8125,-1.15234 2.714843,-3.02734 2.714843,-5.6289 v -15.6836 c 0,-2.59765 -0.910156,-4.47656 -2.738281,-5.625 -1.945312,-1.22656 -4.554687,-1.83984 -7.824219,-1.83984 -3.265625,0 -5.863281,0.61328 -7.792968,1.83594 -1.808594,1.15234 -2.714844,3.02734 -2.714844,5.6289 v 36.13672 c 0,0.26172 0.425781,0.39063 1.277344,0.39063 0.851562,0 1.28125,-0.12891 1.28125,-0.39063 v -36.66016 c 0,-1.67968 0.734375,-2.9414 2.199218,-3.78125 1.320313,-0.7539 3.246094,-1.1289 5.777344,-1.1289 5.320313,0 7.980469,1.63672 7.980469,4.91015 v 16.73047 c 0,1.67969 -0.734375,2.94141 -2.195313,3.78125 -1.316406,0.75391 -3.234375,1.12891 -5.757812,1.12891 z m 0,-0.81641 h 4.5625 c 4.753906,0 7.132812,-1.36718 7.132812,-4.09375 v -16.73047 c 0,-2.72656 -2.386718,-4.08984 -7.160156,-4.08984 -4.773437,0 -7.160156,1.36328 -7.160156,4.08984 v 36.66016 c 0,0.80469 -0.699219,1.20703 -2.097656,1.20703 -1.398438,0 -2.097657,-0.40234 -2.097657,-1.20703 v -36.13672 c 0,-2.90234 1.03125,-5.00781 3.09375,-6.32031 2.0625,-1.30859 4.808594,-1.96484 8.234375,-1.96484 3.429688,0 6.183594,0.65625 8.261719,1.96484 2.082031,1.3125 3.121094,3.41797 3.121094,6.32031 v 15.6836 c 0,2.90234 -1.03125,5.00781 -3.09375,6.32031 -2.0625,1.3125 -4.808594,1.96484 -8.234375,1.96484 h -4.5625 c -0.699219,0 -1.050781,-0.60937 -1.050781,-1.83203 0,-1.22656 0.351562,-1.83594 1.050781,-1.83594 z m 31.921871,-37.08203 v 34.61328 c 0,0.98047 0.22657,1.89063 0.6836,2.73047 0.59375,1.08203 0.88672,1.71094 0.88672,1.88672 0,0.70313 -0.44532,1.37109 -1.33985,2.00391 -0.80468,0.57422 -1.52343,0.86328 -2.15234,0.86328 -1.06641,0 -2.00781,-0.78516 -2.82422,-2.35547 -0.72656,-1.39844 -1.08984,-2.92969 -1.08984,-4.60156 v -35.14063 c 0,-1.35156 0.97265,-2.02734 2.91797,-2.02734 1.94531,0 2.91796,0.67578 2.91796,2.02734 z m -1.64062,0 c 0,-0.25781 -0.42578,-0.38672 -1.27734,-0.38672 -0.85157,0 -1.28125,0.12891 -1.28125,0.38672 v 35.14063 c 0,1.40234 0.30468,2.68359 0.90625,3.84375 0.51171,0.98047 0.96875,1.47265 1.37109,1.47265 0.28125,0 0.67969,-0.1875 1.20312,-0.55859 0.4336,-0.30859 0.65235,-0.53125 0.65235,-0.66797 L 108.04688,213.5 c -0.12891,-0.24219 -0.32422,-0.60547 -0.58594,-1.08203 -0.58985,-1.08594 -0.88672,-2.25391 -0.88672,-3.51563 z m 0.82031,0 v 34.61328 c 0,1.1211 0.26172,2.16016 0.78516,3.1211 0.52734,0.96484 0.78906,1.46093 0.78906,1.49609 0,0.41797 -0.33203,0.86719 -0.99609,1.33594 -0.66797,0.47265 -1.22657,0.71094 -1.67969,0.71094 -0.73438,0 -1.43359,-0.64063 -2.09766,-1.91407 -0.66406,-1.27734 -0.99609,-2.68359 -0.99609,-4.22265 v -35.14063 c 0,-0.80469 0.69922,-1.20703 2.09766,-1.20703 1.39843,0 2.09765,0.40234 2.09765,1.20703 z m 16.55469,10.22656 v 24.38672 c 0,0.98047 0.22656,1.89063 0.6875,2.73047 0.58984,1.08203 0.88672,1.71094 0.88672,1.88672 0,0.70313 -0.44922,1.37109 -1.34375,2.00391 -0.80469,0.57422 -1.52344,0.86328 -2.15235,0.86328 -1.0664,0 -2.00781,-0.78516 -2.82421,-2.35547 -0.72657,-1.39844 -1.08985,-2.92969 -1.08985,-4.60156 v -24.91407 c 0,-0.71875 0.3125,-1.25781 0.9336,-1.61718 0.47656,-0.27344 1.13671,-0.41016 1.98437,-0.41016 1.94531,0 2.91797,0.67578 2.91797,2.02734 z m -1.64063,0 c 0,-0.25781 -0.42578,-0.38671 -1.27734,-0.38671 -0.85156,0 -1.27734,0.1289 -1.27734,0.38671 v 24.91407 c 0,1.40234 0.30078,2.68359 0.90234,3.84375 0.51172,0.98047 0.96875,1.47265 1.37109,1.47265 0.28125,0 0.67969,-0.1875 1.20313,-0.55859 0.43359,-0.30859 0.65234,-0.53125 0.65234,-0.66797 L 123.78125,213.5 c -0.12891,-0.24219 -0.32422,-0.60547 -0.58594,-1.08203 -0.58984,-1.08594 -0.88672,-2.25391 -0.88672,-3.51563 z m 1.79688,-11.17187 v 4.5625 c 0,1.42187 -1.03516,2.13281 -3.10156,2.13281 -2.06641,0 -3.10157,-0.71094 -3.10157,-2.13281 v -4.5625 c 0,-0.75391 0.32813,-1.31641 0.98438,-1.69531 0.50391,-0.28907 1.21094,-0.4336 2.11719,-0.4336 0.90625,0 1.61328,0.14453 2.12109,0.4336 0.65234,0.3789 0.98047,0.9414 0.98047,1.69531 z m -1.64063,0 c 0,-0.32813 -0.48437,-0.49219 -1.46093,-0.49219 -0.97266,0 -1.46094,0.16406 -1.46094,0.49219 v 4.5625 c 0,0.12109 0.0508,0.21094 0.16016,0.27344 0.2539,0.14453 0.6875,0.21875 1.30078,0.21875 0.97656,0 1.46093,-0.16407 1.46093,-0.49219 z m 0.66407,11.17187 v 24.38672 c 0,1.1211 0.26172,2.16016 0.78515,3.1211 0.52735,0.96484 0.78907,1.46093 0.78907,1.49609 0,0.41797 -0.33204,0.86719 -0.9961,1.33594 -0.66406,0.47265 -1.22656,0.71094 -1.67969,0.71094 -0.73437,0 -1.43359,-0.64063 -2.09765,-1.91407 -0.66406,-1.27734 -0.9961,-2.68359 -0.9961,-4.22265 v -24.91407 c 0,-0.80468 0.69922,-1.20703 2.09766,-1.20703 1.39844,0 2.09766,0.40235 2.09766,1.20703 z m 0.15625,-11.17187 v 4.5625 c 0,0.875 -0.75782,1.3125 -2.28125,1.3125 -1.51953,0 -2.28125,-0.4375 -2.28125,-1.3125 v -4.5625 c 0,-0.875 0.76172,-1.3125 2.28125,-1.3125 1.52343,0 2.28125,0.4375 2.28125,1.3125 z m 15.875,17.20312 v 17.51954 c 0,2.17968 1.96093,3.26953 5.89062,3.26953 2.08594,0 3.62109,-0.30078 4.60938,-0.90235 0.85937,-0.52343 1.28515,-1.3125 1.28515,-2.36718 v -2.20313 c 0,-0.71875 0.3125,-1.25781 0.9375,-1.61719 0.47656,-0.27343 1.13672,-0.41015 1.98047,-0.41015 1.94531,0 2.91797,0.67578 2.91797,2.02734 v 1.67578 c 0,3.19531 -1.10938,5.53125 -3.32813,7.00391 -2.11328,1.40234 -4.90625,2.10547 -8.375,2.10547 -3.46875,0 -6.26562,-0.70313 -8.39453,-2.10157 -2.24218,-1.47656 -3.35937,-3.80859 -3.35937,-7.00781 v -16.46875 c 0,-3.19531 1.11719,-5.53125 3.35937,-7.0039 2.12891,-1.40235 4.92578,-2.10157 8.39453,-2.10157 3.46875,0 6.26172,0.70313 8.375,2.10547 2.21875,1.47266 3.32813,3.80469 3.32813,7 V 192.75 c 0,1.35156 -0.97266,2.02734 -2.91797,2.02734 -0.84375,0 -1.50391,-0.13672 -1.98047,-0.41406 -0.625,-0.35547 -0.9375,-0.89453 -0.9375,-1.61328 v -2.20313 c 0,-1.05468 -0.42578,-1.84765 -1.28515,-2.36718 -0.98829,-0.60157 -2.52344,-0.90235 -4.60938,-0.90235 -3.92969,0 -5.89062,1.08985 -5.89062,3.26953 z m -1.64063,0 c 0,-3.27343 2.51172,-4.91015 7.53125,-4.91015 2.39453,0 4.21484,0.3789 5.46484,1.14062 1.37891,0.84375 2.07032,2.09766 2.07032,3.76953 V 192.75 c 0,0.0859 0.0391,0.15234 0.11328,0.19531 0.22265,0.12891 0.60937,0.19141 1.16406,0.19141 0.85156,0 1.27734,-0.12891 1.27734,-0.38672 v -1.67969 c 0,-2.60937 -0.86328,-4.48828 -2.59375,-5.63672 -1.83984,-1.21875 -4.32812,-1.82812 -7.46875,-1.82812 -3.14062,0 -5.64062,0.60937 -7.49609,1.83203 -1.74609,1.14844 -2.62109,3.02734 -2.62109,5.63281 v 16.46875 c 0,2.60938 0.875,4.48828 2.62109,5.63672 1.85547,1.22266 4.35547,1.83203 7.49609,1.83203 3.14063,0 5.62891,-0.60937 7.46875,-1.82812 1.73047,-1.15235 2.59375,-3.03125 2.59375,-5.64063 v -1.67578 c 0,-0.25781 -0.42578,-0.38672 -1.27734,-0.38672 -0.85156,0 -1.27734,0.12891 -1.27734,0.38672 v 2.20313 c 0,3.27343 -2.51172,4.91015 -7.53516,4.91015 -5.01953,0 -7.53125,-1.63672 -7.53125,-4.91015 z m 0.82031,0 v 17.51954 c 0,2.72656 2.23828,4.08984 6.71094,4.08984 4.47656,0 6.71484,-1.36328 6.71484,-4.08984 v -2.20313 c 0,-0.80469 0.69922,-1.20703 2.09766,-1.20703 1.39844,0 2.09766,0.40234 2.09766,1.20703 v 1.67578 c 0,2.90235 -0.98828,5.01172 -2.96094,6.32031 -1.97656,1.3125 -4.61719,1.96875 -7.92188,1.96875 -3.30468,0 -5.95312,-0.65625 -7.94531,-1.96875 -1.99219,-1.30859 -2.98828,-3.41796 -2.98828,-6.32031 v -16.46875 c 0,-2.90234 0.99609,-5.00781 2.98828,-6.32031 1.99219,-1.30859 4.64063,-1.96484 7.94531,-1.96484 3.30469,0 5.94532,0.65625 7.92188,1.96484 1.97266,1.3125 2.96094,3.41797 2.96094,6.32031 V 192.75 c 0,0.80469 -0.69922,1.20703 -2.09766,1.20703 -1.39844,0 -2.09766,-0.40234 -2.09766,-1.20703 v -2.20313 c 0,-2.72656 -2.23828,-4.08984 -6.71484,-4.08984 -4.47266,0 -6.71094,1.36328 -6.71094,4.08984 z m 40.85547,25.3125 h -6.13672 c -3.28906,0 -5.69531,-0.69921 -7.21484,-2.10546 -1.53906,-1.42188 -2.30859,-3.75391 -2.30859,-7 v -0.41797 c 0,-3.21485 0.69921,-5.46094 2.10156,-6.74219 1.35547,-1.24219 3.69922,-2.02734 7.02734,-2.36328 l 9.07422,-0.89063 0.082,0.81641 H 181 v -5.82422 c 0,-1.04687 -0.45703,-1.83203 -1.37109,-2.35547 -1.0625,-0.60937 -2.71094,-0.91406 -4.94141,-0.91406 H 167.5 c -0.66797,0 -1.16406,-0.28906 -1.49609,-0.87109 -0.25,-0.4336 -0.3711,-1.02735 -0.3711,-1.78516 0,-0.75781 0.1211,-1.35156 0.3711,-1.78125 0.33203,-0.58203 0.82812,-0.875 1.49609,-0.875 h 7.1875 c 3.58594,0 6.47656,0.69922 8.67187,2.09766 2.31641,1.47265 3.47657,3.80859 3.47657,7.01171 v 15.47266 c 0,2.11719 0.35937,3.77734 1.08593,4.97656 0.32422,0.55469 0.48438,0.95703 0.48438,1.21094 0,0.70313 -0.44531,1.37109 -1.33984,2.00391 -0.80469,0.57422 -1.52344,0.86328 -2.15235,0.86328 -1.125,0 -2.08203,-0.89063 -2.875,-2.66406 C 181.34766,212.16406 181,210.21094 181,207.85547 v -7.02735 h 0.82031 l 0.082,0.8125 -8.75781,0.89454 c -1.67578,0.18359 -2.72266,0.51562 -3.14453,0.98828 -0.42188,0.47265 -0.63281,1.41015 -0.63281,2.8125 v 0.41797 c 0,1.48046 0.22656,2.49609 0.67968,3.04687 0.41407,0.5 1.41797,0.75 3.01172,0.75 h 6.13672 c 1.2461,0 1.8711,0.88281 1.8711,2.65625 0,1.76953 -0.625,2.65234 -1.8711,2.65234 z m 0,-1.63671 c 0.15235,0 0.23047,-0.33985 0.23047,-1.01563 0,-0.67969 -0.0781,-1.01953 -0.23047,-1.01953 h -6.13672 c -2.10937,0 -3.53515,-0.44922 -4.27734,-1.34375 -0.69922,-0.85156 -1.05078,-2.21484 -1.05078,-4.08984 v -0.41797 c 0,-1.81641 0.34765,-3.11719 1.04687,-3.90235 0.69922,-0.78515 2.09766,-1.29687 4.19922,-1.53125 l 9.66016,-0.98047 v 7.9336 c 0,2.12109 0.30078,3.85547 0.90234,5.19922 0.5,1.1289 0.96094,1.6914 1.375,1.6914 0.28125,0 0.67969,-0.1875 1.20313,-0.55859 0.43359,-0.30859 0.65234,-0.53125 0.65234,-0.66797 l -0.0156,0.0703 c -0.0508,-0.10547 -0.12891,-0.25 -0.23438,-0.43359 -0.88281,-1.45703 -1.32422,-3.39844 -1.32422,-5.82422 v -15.47266 c 0,-2.60156 -0.90625,-4.48046 -2.71484,-5.6289 -1.92969,-1.22656 -4.52735,-1.83985 -7.79297,-1.83985 H 167.5 c -0.15234,0 -0.23047,0.33985 -0.23047,1.01563 0,0.67969 0.0781,1.01562 0.23047,1.01562 h 7.1875 c 2.52344,0 4.44141,0.37891 5.75781,1.13282 1.46094,0.83984 2.19141,2.09765 2.19141,3.77734 v 6.56641 l -9.8086,0.96484 c -2.96875,0.29688 -4.99609,0.94141 -6.08593,1.9375 -1.04688,0.95703 -1.57032,2.80078 -1.57032,5.53516 v 0.41797 c 0,2.76953 0.59375,4.69921 1.78125,5.79687 1.20704,1.11328 3.24219,1.67188 6.10547,1.67188 z m 0,0.8164 h -6.13672 c -3.07422,0 -5.29687,-0.6289 -6.66015,-1.88672 -1.36328,-1.25781 -2.04297,-3.39062 -2.04297,-6.39843 v -0.41797 c 0,-2.97266 0.60937,-5.01953 1.83203,-6.13672 1.22656,-1.1211 3.41016,-1.83594 6.55859,-2.15235 l 9.07422,-0.89062 v -5.82422 c 0,-2.72656 -2.3789,-4.08984 -7.13281,-4.08984 H 167.5 c -0.69922,0 -1.04688,-0.60938 -1.04688,-1.83594 0,-1.22266 0.34766,-1.83594 1.04688,-1.83594 h 7.1875 c 3.42578,0 6.17187,0.65625 8.23437,1.96875 2.0625,1.3086 3.09375,3.41797 3.09375,6.32031 v 15.47266 c 0,2.27344 0.40235,4.07422 1.20704,5.40234 0.24218,0.41797 0.36718,0.67969 0.36718,0.78516 0,0.41797 -0.33203,0.86719 -0.99609,1.33594 -0.66797,0.47265 -1.22656,0.71094 -1.67969,0.71094 -0.76953,0 -1.47656,-0.72657 -2.125,-2.17969 -0.64844,-1.44922 -0.96875,-3.29297 -0.96875,-5.53125 v -7.02735 l -8.76172,0.89063 c -1.88672,0.21094 -3.10937,0.62891 -3.67187,1.25781 -0.5586,0.62891 -0.83594,1.75 -0.83594,3.35938 v 0.41797 c 0,1.67968 0.28906,2.86718 0.86328,3.5664 0.57813,0.69922 1.79297,1.05078 3.64453,1.05078 h 6.13672 c 0.69922,0 1.05078,0.60938 1.05078,1.83594 0,1.22266 -0.35156,1.83203 -1.05078,1.83203 z M 201.75,210.55078 h 9.85937 c 2.07422,0 3.48438,-0.25391 4.24219,-0.75391 0.64453,-0.43359 0.96875,-1.27343 0.96875,-2.51953 v -23.28515 c 0,-1.2461 -0.32422,-2.08594 -0.96875,-2.51953 -0.75781,-0.5 -2.16797,-0.75391 -4.24219,-0.75391 H 201.75 v -0.82031 h 0.82031 v 31.47265 H 201.75 Z m -0.82031,1.63672 v -33.10547 h 10.67968 c 2.40235,0 4.1211,0.33984 5.14844,1.02734 1.13672,0.75782 1.70313,2.05079 1.70313,3.88282 v 23.28515 c 0,1.83203 -0.56641,3.125 -1.70313,3.88282 -1.02734,0.6875 -2.74609,1.02734 -5.14844,1.02734 z m -4.19532,-1.08203 v -30.94141 c 0,-1.70703 0.23047,-2.90234 0.69141,-3.58203 0.53125,-0.78125 1.62109,-1.17187 3.27344,-1.17187 h 10.91015 c 3.67969,0 6.42579,0.68359 8.23047,2.05468 1.87891,1.42188 2.81641,3.77344 2.81641,7.05078 v 22.23829 c 0,3.27734 -0.9375,5.6289 -2.81641,7.05078 -1.80468,1.37109 -4.55078,2.05468 -8.23047,2.05468 h -10.91015 c -1.65235,0 -2.74219,-0.39062 -3.27344,-1.17187 -0.46094,-0.67969 -0.69141,-1.875 -0.69141,-3.58203 z m 1.64063,0 c 0,1.37109 0.13672,2.25781 0.40625,2.66406 0.20703,0.30078 0.84375,0.45313 1.91797,0.45313 h 10.91015 c 3.3125,0 5.72657,-0.57422 7.24219,-1.72266 1.44531,-1.09375 2.16797,-3.01172 2.16797,-5.74609 v -22.23829 c 0,-2.73437 -0.72266,-4.65234 -2.16797,-5.74609 -1.51562,-1.14844 -3.92969,-1.72266 -7.24219,-1.72266 h -10.91015 c -1.07422,0 -1.71094,0.15235 -1.91797,0.45313 -0.26953,0.40625 -0.40625,1.29297 -0.40625,2.66406 z m 3.375,0.26562 h 9.85937 c 2.23829,0 3.80469,-0.30078 4.69532,-0.89453 0.89062,-0.59375 1.33593,-1.66015 1.33593,-3.19922 v -23.28515 c 0,-1.53907 -0.44531,-2.60547 -1.33593,-3.19922 -0.89063,-0.59766 -2.45703,-0.89453 -4.69532,-0.89453 H 201.75 Z m -4.19531,-0.26562 v -30.94141 c 0,-1.53906 0.18359,-2.58203 0.55078,-3.12109 0.36719,-0.54297 1.23047,-0.8125 2.59375,-0.8125 h 10.91015 c 3.4961,0 6.07422,0.6289 7.73829,1.88672 1.66015,1.25781 2.48828,3.39062 2.48828,6.39843 v 22.23829 c 0,3.00781 -0.82813,5.14062 -2.48828,6.39843 -1.66407,1.25782 -4.24219,1.88672 -7.73829,1.88672 h -10.91015 c -1.36328,0 -2.22656,-0.26953 -2.59375,-0.8125 -0.36719,-0.53906 -0.55078,-1.58203 -0.55078,-3.12109 z m 47.09765,5.01562 h -3.51172 c -3.25781,0 -5.59765,-0.8164 -7.01953,-2.45703 -1.39062,-1.60547 -2.08984,-4.13672 -2.08984,-7.59375 v -22.33984 c 0,-3.20703 1.17969,-5.54688 3.53516,-7.01563 2.23046,-1.39453 5.17187,-2.09375 8.82421,-2.09375 3.65625,0 6.58204,0.69922 8.77735,2.09766 2.3164,1.46875 3.47656,3.80859 3.47656,7.01172 v 4.875 c 0,3.83203 -1.55859,6.22656 -4.67187,7.18359 l -0.23829,-0.78515 0.1875,-0.79688 c 3.5,0.83594 5.2461,3.26953 5.2461,7.30078 v 5.50781 c 0,3.20704 -1.19531,5.54688 -3.58985,7.01954 -2.26562,1.39062 -5.23828,2.08593 -8.92578,2.08593 z m 0,-1.63672 c 3.37891,0 6.06641,-0.61718 8.06641,-1.84765 1.875,-1.14844 2.8125,-3.02344 2.8125,-5.6211 v -5.50781 c 0,-3.16797 -1.33203,-5.07031 -3.98828,-5.70703 l -2.92188,-0.69531 2.8711,-0.88281 c 2.34375,-0.72266 3.51172,-2.59375 3.51172,-5.61719 v -4.875 c 0,-2.60547 -0.90235,-4.48047 -2.71485,-5.62891 -1.92578,-1.22656 -4.5625,-1.83984 -7.89844,-1.83984 -3.33984,0 -5.99218,0.61328 -7.95703,1.84375 -1.83984,1.14844 -2.76172,3.02344 -2.76172,5.625 v 22.33984 c 0,3.05078 0.5625,5.22266 1.6875,6.51953 1.09375,1.26172 3.02344,1.89453 5.78125,1.89453 z m 1.83594,-16.76953 h -6.55469 c -1.24609,0 -1.87109,-0.88672 -1.87109,-2.65625 0,-1.76953 0.625,-2.65625 1.87109,-2.65625 h 6.03125 c 3.23047,0 4.84375,-1.26562 4.84375,-3.79687 v -5.40235 c 0,-1.04296 -0.46875,-1.82812 -1.40234,-2.35156 -1.08984,-0.61328 -2.78125,-0.91797 -5.06641,-0.91797 -2.28906,0 -3.97656,0.30469 -5.07031,0.91797 -0.93359,0.52344 -1.40234,1.3086 -1.40234,2.35156 v 22.86719 c 0,1.85156 0.2539,3.125 0.76172,3.82031 0.44531,0.61329 1.28515,0.92188 2.51171,0.92188 h 3.40625 c 4.52344,0 6.78516,-1.08984 6.78516,-3.27344 v -6.03125 c 0,-2.53125 -1.61328,-3.79297 -4.84375,-3.79297 z m 0,-1.64062 c 4.32422,0 6.48438,1.8125 6.48438,5.43359 v 6.03125 c 0,3.27344 -2.8086,4.91016 -8.42579,4.91016 h -3.40625 c -1.78125,0 -3.0625,-0.53125 -3.83593,-1.59375 -0.71875,-0.98438 -1.07813,-2.57813 -1.07813,-4.78516 v -22.86719 c 0,-1.68359 0.75,-2.94531 2.24219,-3.78125 1.33984,-0.7539 3.29687,-1.1289 5.87109,-1.1289 5.40625,0 8.10938,1.63672 8.10938,4.91015 v 5.40235 c 0,1.80078 -0.57422,3.16406 -1.71875,4.09765 -1.09375,0.89063 -2.6836,1.33985 -4.76563,1.33985 h -6.03125 c -0.0352,0 -0.0586,0.0156 -0.0781,0.043 -0.10156,0.17968 -0.15235,0.5039 -0.15235,0.97265 0,0.67578 0.0781,1.01563 0.23047,1.01563 z m -1.83594,19.23047 h -3.51172 c -3.00781,0 -5.14062,-0.72657 -6.40234,-2.17969 -1.25781,-1.44922 -1.88672,-3.80078 -1.88672,-7.05469 v -22.33984 c 0,-2.90235 1.05078,-5.01172 3.14844,-6.32031 2.09766,-1.3125 4.89453,-1.96875 8.39062,-1.96875 3.4961,0 6.27735,0.65625 8.33985,1.96875 2.0625,1.30859 3.09375,3.41796 3.09375,6.32031 v 4.875 c 0,3.42578 -1.36328,5.5625 -4.08985,6.39844 3.07422,0.73437 4.61329,2.90234 4.61329,6.5039 v 5.50781 c 0,2.90235 -1.06641,5.00782 -3.19922,6.32032 -2.13282,1.3125 -4.96485,1.96875 -8.4961,1.96875 z m 1.83594,-18.41016 h -6.55469 c -0.69922,0 -1.05078,-0.61328 -1.05078,-1.83594 0,-1.22656 0.35156,-1.83593 1.05078,-1.83593 h 6.03125 c 3.77735,0 5.66407,-1.53907 5.66407,-4.61719 v -5.40235 c 0,-2.72656 -2.42969,-4.08984 -7.28907,-4.08984 -4.86328,0 -7.29297,1.36328 -7.29297,4.08984 v 22.86719 c 0,2.03125 0.3086,3.46485 0.91797,4.30078 0.61328,0.83985 1.67188,1.26172 3.17578,1.26172 h 3.40625 c 5.07032,0 7.60547,-1.36328 7.60547,-4.09375 v -6.03125 c 0,-3.07422 -1.88672,-4.61328 -5.66406,-4.61328 z m 0,0"
       id="path14" />
  </g>
</svg>
